<?xml version="1.0" encoding="UTF-8"?>
<!DOCTYPE svg PUBLIC "-//W3C//DTD SVG 1.1//EN" "http://www.w3.org/Graphics/SVG/1.1/DTD/svg11.dtd">
<svg xmlns="http://www.w3.org/2000/svg" version="1.1" width="512px" height="512px" style="shape-rendering:geometricPrecision; text-rendering:geometricPrecision; image-rendering:optimizeQuality; fill-rule:evenodd; clip-rule:evenodd" xmlns:xlink="http://www.w3.org/1999/xlink">
<g><path style="opacity:0.965" fill="#000000" d="M 164.5,-0.5 C 225.167,-0.5 285.833,-0.5 346.5,-0.5C 358.766,2.29956 369.766,7.79956 379.5,16C 418.639,56.139 458.139,95.9724 498,135.5C 504.7,144.229 509.2,153.896 511.5,164.5C 511.5,225.5 511.5,286.5 511.5,347.5C 509.002,357.169 504.835,366.169 499,374.5C 459.528,414.972 419.695,455.139 379.5,495C 369.766,503.2 358.766,508.7 346.5,511.5C 285.833,511.5 225.167,511.5 164.5,511.5C 154.395,509.285 145.061,505.118 136.5,499C 95,457.5 53.5,416 12,374.5C 5.87598,365.929 1.70932,356.595 -0.5,346.5C -0.5,285.833 -0.5,225.167 -0.5,164.5C 1.70932,154.405 5.87598,145.071 12,136.5C 53.5,95 95,53.5 136.5,12C 145.061,5.88167 154.395,1.715 164.5,-0.5 Z M 175.5,21.5 C 228.834,21.3333 282.168,21.5 335.5,22C 344.693,22.0647 353.026,24.7313 360.5,30C 400.667,70.1667 440.833,110.333 481,150.5C 485.623,156.748 488.29,163.748 489,171.5C 489.378,228.836 489.045,286.169 488,343.5C 486.168,351.5 482.501,358.5 477,364.5C 437.779,403.721 398.613,442.887 359.5,482C 353.162,486.334 346.162,488.667 338.5,489C 283.167,489.667 227.833,489.667 172.5,489C 162.946,488.596 154.613,485.262 147.5,479C 109.333,440.833 71.1667,402.667 33,364.5C 26.3,356.763 22.6334,347.763 22,337.5C 21.3333,282.833 21.3333,228.167 22,173.5C 22.4801,165.059 25.1467,157.393 30,150.5C 68.4721,111.028 107.305,71.861 146.5,33C 154.977,25.9019 164.644,22.0685 175.5,21.5 Z"/></g>
</svg>
