<svg width="144" height="35" viewBox="0 0 144 35" fill="none" xmlns="http://www.w3.org/2000/svg">
    <path d="M29.4118 27.4745C28.2364 29.0596 24.1274 27.7688 21.6632 26.83C19.424 25.9778 10.5538 22.219 7.22777 21.4495C7.17583 25.0314 7.12774 27.94 7.10466 28.1208C7.04502 28.5902 7.04502 31.7028 4.87317 31.5258C2.70132 31.3488 2.81867 28.8249 2.81867 28.8249L3.00527 20.5934C1.51441 20.0894 0.0831795 19.2526 0.00238446 17.908C-0.0668685 16.723 1.38167 15.5687 3.13608 14.83L3.34769 5.5213C3.34769 5.5213 3.52466 3.4668 5.28484 3.4668C7.04502 3.4668 7.39898 6.22537 7.39898 7.51617C7.39898 7.97016 7.37013 10.5979 7.32973 13.8317C11.2156 12.7236 21.2496 7.48924 21.7805 7.22377C22.3672 6.92944 25.5375 5.16926 26.2993 7.10642C27.063 9.04358 21.2515 13.5046 19.9011 14.2683C18.5506 15.0301 13.0931 17.6136 13.0931 18.083C13.0931 18.5524 25.1854 22.7787 26.9456 23.3078C28.7077 23.8368 30.5852 25.8913 29.4118 27.4745Z" fill="#C0ECC3"/>
    <path d="M78.3438 30.8277C78.3438 30.8277 79.0344 19.4337 79.725 14.0474C80.1289 10.8906 79.3806 4.17306 81.0369 3.55171C82.6932 2.93036 86.7003 7.55684 90.4976 11.9756C94.295 16.3943 101.201 24.1294 102.375 23.8524C103.204 23.7139 101.132 17.4312 101.615 11.6985C102.097 5.96594 101.822 2.23783 103.756 2.16858C105.689 2.09932 105.897 4.30965 105.897 7.20865C105.897 10.1077 106.932 23.1599 107.001 25.301C107.07 27.442 107.139 32.6899 104.721 32.7591C102.303 32.8284 95.8128 23.9198 93.741 21.5036C91.6692 19.0875 83.7974 9.69598 83.3146 9.90182C82.8317 10.1077 82.901 27.7171 82.901 29.0983C82.901 30.4796 82.0719 32.8265 80.4156 32.8265C78.7593 32.8265 78.3438 30.8239 78.3438 30.8239V30.8277Z" fill="#C0ECC3"/>
    <path d="M135.222 10.5981C135.222 10.5981 135.986 12.0832 137.511 11.6023C139.037 11.1214 138.394 9.67475 138.154 8.58979C137.913 7.50483 135.945 2.32432 129.561 1.8434C123.176 1.36055 116.268 3.61127 115.264 9.11111C114.26 14.6109 119.44 18.1063 125.463 19.3913C131.486 20.6763 139.237 22.4038 138.113 25.6568C136.99 28.9097 129.882 29.5523 124.902 28.0672C119.921 26.5821 118.396 24.8142 117.834 24.4526C117.272 24.0909 114.702 22.7655 114.943 27.5843C115.183 32.4032 125.544 33.0053 130.282 33.2073C135.02 33.4093 142.047 31.1181 142.852 27.3439C143.656 23.5696 143.254 19.8338 135.141 17.3445C127.029 14.8553 121.649 13.3682 120.925 12.1236C120.202 10.879 119.288 7.33939 126.227 5.89854C132.131 4.67315 135.222 10.5962 135.222 10.5962V10.5981Z" fill="#C0ECC3"/>
    <path d="M70.3671 19.2238C70.2729 10.5537 66.0696 2.84164 56.8551 1.68165C53.7195 1.28153 50.3704 1.47582 47.431 2.64158C42.9565 4.34404 40.1883 8.66658 39.3034 13.2373C37.5336 21.1629 41.5002 28.9865 49.5182 31.1853C50.9917 31.6085 52.5364 31.8432 54.0985 31.9336C58.269 31.5047 62.4338 29.3251 64.1325 24.3639C65.4944 20.2741 65.3982 14.7281 62.5089 11.354C59.5983 7.92596 54.1793 7.54891 50.2415 9.44183C45.6919 11.5791 44.0203 15.7092 45.2822 20.4453C46.3999 24.8852 51.4553 27.638 55.8067 26.2626C59.3367 25.218 60.7218 21.1802 60.6121 17.7753C60.5832 17.1847 60.5756 16.5768 60.3389 16.0305C59.204 13.0334 56.5396 11.7291 53.3386 12.6813C51.5958 13.1873 50.582 14.0991 50.2761 15.6438C50.0376 16.8519 50.128 18.1388 50.5243 19.2988C51.0802 20.9224 53.4098 22.2132 55.4835 20.682C57.6977 18.8833 56.3146 16.9481 54.3813 17.1154C56.1953 16.9577 58.0959 18.5082 57.0129 20.2741C56.4723 21.1052 55.5374 21.79 54.6044 22.0478C51.0206 22.9269 48.893 20.2741 48.816 16.9538C48.6602 14.53 50.4223 12.1562 52.9635 11.5175C55.674 10.8346 59.1443 11.6579 60.7352 13.9433C61.5355 15.0475 61.724 16.3306 61.8625 17.6945C62.1568 20.4011 61.597 23.2732 59.9253 25.5547C57.2591 29.1789 51.969 29.6521 48.135 27.7188C43.9933 25.7355 41.9331 21.5188 41.9484 17.0462C41.8869 12.4986 44.8801 8.51653 48.8987 6.62939C56.7262 2.92436 65.9311 6.16001 67.8086 15.0782C69.4611 22.9115 66.4024 31.6585 58.2556 34.2248C56.8282 34.6787 55.3604 34.9461 53.9003 35C48.5602 34.6826 43.0757 32.4492 39.8228 28.0343C36.514 23.6887 35.6349 17.9522 36.9815 12.7179C37.799 9.28793 39.4938 5.96764 42.2043 3.63228C46.2364 0.0715235 51.9593 -0.526745 57.061 0.371619C66.589 1.96636 70.9019 10.1382 70.3671 19.2238Z" fill="#C0ECC3"/>
    </svg>
    